<?xml version="1.0"?>
<svg xmlns="http://www.w3.org/2000/svg" xml:space="preserve" viewBox="5467 2963 18018 13460" width="1000" height="747" style="shape-rendering:geometricPrecision; text-rendering:geometricPrecision; image-rendering:optimizeQuality; fill-rule:evenodd; clip-rule:evenodd">
  <defs></defs>
  <g>
    <polygon fill="#FEFEFE" points="6995,14578 6693,14578 6693,14400 7516,14400 7516,14578 7214,14578 7214,15345 6995,15345 "></polygon>
    <polygon fill="#FEFEFE" points="9048,15170 9048,15345 8316,15345 8316,14400 9031,14400 9031,14576 8534,14576 8534,14781 8973,14781 8973,14951 8534,14951 8534,15170 "></polygon>
    <path fill="#FEFEFE" d="M10355 15361c-97,0 -184,-20 -261,-62 -78,-42 -140,-100 -184,-174 -45,-75 -67,-159 -67,-252 0,-94 22,-178 67,-252 44,-74 106,-132 184,-174 77,-42 165,-63 262,-63 82,0 156,14 222,43 66,29 122,70 167,124l-140 130c-64,-74 -144,-111 -238,-111 -59,0 -111,13 -157,39 -46,25 -81,61 -107,107 -26,46 -39,98 -39,157 0,58 13,110 39,156 26,46 61,82 107,108 46,25 98,38 157,38 94,0 174,-37 238,-112l140 130c-45,55 -101,96 -167,125 -67,29 -141,43 -223,43z"></path>
    <polygon fill="#FEFEFE" points="12442,14400 12442,15345 12262,15345 11791,14771 11791,15345 11575,15345 11575,14400 11756,14400 12226,14974 12226,14400 "></polygon>
    <path fill="#FEFEFE" d="M13806 15361c-98,0 -186,-21 -265,-63 -79,-42 -140,-101 -185,-175 -45,-74 -67,-158 -67,-250 0,-93 22,-177 67,-251 45,-74 106,-132 185,-175 79,-42 167,-63 265,-63 98,0 187,21 265,63 78,43 140,101 185,175 45,74 67,158 67,251 0,92 -22,176 -67,250 -45,74 -107,133 -185,175 -78,42 -167,63 -265,63zm0 -186c56,0 107,-13 152,-38 45,-26 80,-62 106,-108 25,-46 38,-98 38,-156 0,-59 -13,-111 -38,-157 -26,-46 -61,-82 -106,-107 -45,-26 -96,-39 -152,-39 -56,0 -106,13 -151,39 -45,25 -80,61 -106,107 -26,46 -38,98 -38,157 0,58 12,110 38,156 26,46 61,82 106,108 45,25 95,38 151,38z"></path>
    <polygon fill="#FEFEFE" points="15171,14400 15390,14400 15390,15167 15864,15167 15864,15345 15171,15345 "></polygon>
    <path fill="#FEFEFE" d="M17111 15361c-98,0 -187,-21 -266,-63 -78,-42 -140,-101 -185,-175 -44,-74 -67,-158 -67,-250 0,-93 23,-177 67,-251 45,-74 107,-132 185,-175 79,-42 168,-63 266,-63 98,0 186,21 264,63 79,43 140,101 185,175 45,74 68,158 68,251 0,92 -23,176 -68,250 -45,74 -106,133 -185,175 -78,42 -166,63 -264,63zm0 -186c55,0 106,-13 151,-38 45,-26 80,-62 106,-108 25,-46 38,-98 38,-156 0,-59 -13,-111 -38,-157 -26,-46 -61,-82 -106,-107 -45,-26 -96,-39 -151,-39 -56,0 -107,13 -152,39 -45,25 -80,61 -106,107 -25,46 -38,98 -38,157 0,58 13,110 38,156 26,46 61,82 106,108 45,25 96,38 152,38z"></path>
    <path fill="#FEFEFE" d="M19114 14858l200 0 0 383c-52,39 -111,69 -179,89 -67,21 -135,31 -203,31 -99,0 -187,-20 -265,-62 -78,-42 -140,-100 -184,-174 -45,-75 -67,-159 -67,-252 0,-94 22,-178 67,-252 44,-74 106,-132 185,-174 79,-42 169,-63 268,-63 82,0 158,14 225,42 68,28 124,68 170,121l-140 130c-68,-71 -149,-107 -245,-107 -60,0 -113,13 -160,38 -47,25 -84,61 -110,107 -26,46 -39,98 -39,158 0,58 13,110 39,156 26,46 63,82 109,108 46,25 99,38 159,38 63,0 119,-13 170,-40l0 -277z"></path>
    <polygon fill="#FEFEFE" points="20199,14400 20418,14400 20418,15345 20199,15345 "></polygon>
    <path fill="#FEFEFE" d="M21947 15143l-439 0 -84 202 -224 0 422 -945 216 0 422 945 -229 0 -84 -202zm-69 -166l-150 -362 -150 362 300 0z"></path>
    <g>
      <path fill="#FEFEFE" d="M13462 8610c17,246 -70,1307 4,1442 38,70 137,109 222,84 170,-50 166,-282 201,-442 71,-329 150,-675 210,-1001 31,-168 72,-331 103,-504 63,-342 246,-871 -418,-494l-1413 811c-135,77 -380,179 -417,306 -29,100 16,333 355,210 377,-136 777,-294 1153,-412z"></path>
      <path fill="#FEFEFE" d="M12497 9654c183,416 828,141 642,-294 -167,-390 -840,-156 -642,294z"></path>
    </g>
    <g>
      <path fill="#FEFEFE" d="M15494 8618c106,15 775,265 938,321 113,39 364,168 500,84 73,-46 106,-147 65,-246 -29,-68 -127,-116 -184,-150 -135,-81 -289,-156 -420,-237l-417 -239c-146,-77 -272,-155 -417,-241 -131,-78 -278,-150 -408,-230 -101,-63 -346,-227 -457,-25 -68,124 43,452 79,621 93,441 182,872 277,1313 39,183 51,504 226,548 108,27 197,-39 232,-108 33,-66 20,-175 17,-266 -12,-376 -34,-781 -31,-1145z"></path>
      <path fill="#FEFEFE" d="M15827 9659c191,410 833,125 638,-310 -184,-410 -845,-132 -638,310z"></path>
    </g>
    <g>
      <path fill="#FEFEFE" d="M14465 5487l-618 -902c-93,-133 -226,-395 -425,-224 -151,129 -2,343 80,525l749 1662c154,343 371,174 419,62 144,-337 919,-1995 921,-2094 2,-159 -206,-348 -393,-78l-289 417c-110,149 -343,539 -444,632z"></path>
      <path fill="#FEFEFE" d="M14285 4085c-400,277 -22,838 374,597 136,-82 227,-279 118,-476 -79,-141 -295,-257 -492,-121z"></path>
    </g>
    <g>
      <path fill="#FEFEFE" d="M16132 6669l618 -821c78,-100 293,-292 184,-457 -49,-76 -153,-113 -257,-67 -68,29 -1196,1070 -1397,1256 -91,84 -342,270 -366,383 -52,254 231,256 398,269 480,37 1226,129 1713,184 153,17 448,95 504,-107 69,-249 -225,-278 -370,-326 -186,-62 -955,-253 -1027,-314z"></path>
      <path fill="#FEFEFE" d="M16994 6031c-409,241 -54,826 341,618 418,-222 68,-859 -341,-618z"></path>
    </g>
    <g>
      <path fill="#FEFEFE" d="M12825 6690c-378,134 -822,244 -1210,358 -233,69 -269,307 -82,396 87,41 465,-25 595,-41 184,-21 1724,-161 1817,-222 221,-144 18,-337 -84,-428 -487,-435 -956,-869 -1440,-1299 -62,-55 -119,-118 -191,-137 -104,-28 -194,28 -228,100 -77,161 123,352 211,463 88,109 586,739 612,810z"></path>
      <path fill="#FEFEFE" d="M11606 6042c-401,234 -65,829 337,615 421,-223 70,-853 -337,-615z"></path>
    </g>
    <polygon fill="#FEFEFE" points="12988,13615 10903,10921 8819,13626 10137,13626 10909,12626 11627,13626 "></polygon>
    <polygon fill="#FEFEFE" points="18007,13616 20134,10921 18767,10921 17788,12159 17305,10921 16347,10924 14263,13626 15634,13626 16637,12299 17042,13620 17751,13622 "></polygon>
    <polygon fill="#FEFEFE" points="11543,10931 13628,13626 15713,10921 14394,10921 13622,11921 12905,10921 "></polygon>
  </g>
</svg>