<?xml version="1.0"?>
<svg xmlns="http://www.w3.org/2000/svg" xml:space="preserve" viewBox="11200 3800 6700 6600" width="600" height="591" style="shape-rendering:geometricPrecision; fill-rule:evenodd; clip-rule:evenodd">
  <defs></defs>
  <g>
    <g>
      <path fill="#FEFEFE" d="M13462 8610c17,246 -70,1307 4,1442 38,70 137,109 222,84 170,-50 166,-282 201,-442 71,-329 150,-675 210,-1001 31,-168 72,-331 103,-504 63,-342 246,-871 -418,-494l-1413 811c-135,77 -380,179 -417,306 -29,100 16,333 355,210 377,-136 777,-294 1153,-412z"></path>
      <path fill="#FEFEFE" d="M12497 9654c183,416 828,141 642,-294 -167,-390 -840,-156 -642,294z"></path>
    </g>
    <g>
      <path fill="#FEFEFE" d="M15494 8618c106,15 775,265 938,321 113,39 364,168 500,84 73,-46 106,-147 65,-246 -29,-68 -127,-116 -184,-150 -135,-81 -289,-156 -420,-237l-417 -239c-146,-77 -272,-155 -417,-241 -131,-78 -278,-150 -408,-230 -101,-63 -346,-227 -457,-25 -68,124 43,452 79,621 93,441 182,872 277,1313 39,183 51,504 226,548 108,27 197,-39 232,-108 33,-66 20,-175 17,-266 -12,-376 -34,-781 -31,-1145z"></path>
      <path fill="#FEFEFE" d="M15827 9659c191,410 833,125 638,-310 -184,-410 -845,-132 -638,310z"></path>
    </g>
    <g>
      <path fill="#FEFEFE" d="M14465 5487l-618 -902c-93,-133 -226,-395 -425,-224 -151,129 -2,343 80,525l749 1662c154,343 371,174 419,62 144,-337 919,-1995 921,-2094 2,-159 -206,-348 -393,-78l-289 417c-110,149 -343,539 -444,632z"></path>
      <path fill="#FEFEFE" d="M14285 4085c-400,277 -22,838 374,597 136,-82 227,-279 118,-476 -79,-141 -295,-257 -492,-121z"></path>
    </g>
    <g>
      <path fill="#FEFEFE" d="M16132 6669l618 -821c78,-100 293,-292 184,-457 -49,-76 -153,-113 -257,-67 -68,29 -1196,1070 -1397,1256 -91,84 -342,270 -366,383 -52,254 231,256 398,269 480,37 1226,129 1713,184 153,17 448,95 504,-107 69,-249 -225,-278 -370,-326 -186,-62 -955,-253 -1027,-314z"></path>
      <path fill="#FEFEFE" d="M16994 6031c-409,241 -54,826 341,618 418,-222 68,-859 -341,-618z"></path>
    </g>
    <g>
      <path fill="#FEFEFE" d="M12825 6690c-378,134 -822,244 -1210,358 -233,69 -269,307 -82,396 87,41 465,-25 595,-41 184,-21 1724,-161 1817,-222 221,-144 18,-337 -84,-428 -487,-435 -956,-869 -1440,-1299 -62,-55 -119,-118 -191,-137 -104,-28 -194,28 -228,100 -77,161 123,352 211,463 88,109 586,739 612,810z"></path>
      <path fill="#FEFEFE" d="M11606 6042c-401,234 -65,829 337,615 421,-223 70,-853 -337,-615z"></path>
    </g>
  </g>
</svg>